<mxfile host="www.draw.io" modified="2020-01-13T06:50:02.071Z" agent="Mozilla/5.0 (Windows NT 10.0; Win64; x64; rv:72.0) Gecko/20100101 Firefox/72.0" etag="8wL6Mp7HnzzuKavsRwla" version="12.5.1" type="github">
  <diagram id="zJZNhlWsRWpa2oUrnmgJ" name="Page-1">
    <mxGraphModel dx="585" dy="447" grid="1" gridSize="10" guides="1" tooltips="1" connect="1" arrows="1" fold="1" page="1" pageScale="1" pageWidth="850" pageHeight="1100" math="0" shadow="0">
      <root>
        <mxCell id="0"/>
        <mxCell id="1" parent="0"/>
        <mxCell id="GcZBcdGSQjWDYk3LejI2-1" value="" style="whiteSpace=wrap;fillColor=#ffe6cc;gradientDirection=east;strokeColor=#d79b00;html=1;" vertex="1" parent="1">
          <mxGeometry x="160" y="600" width="40" height="160" as="geometry"/>
        </mxCell>
        <mxCell id="GcZBcdGSQjWDYk3LejI2-2" value="" style="whiteSpace=wrap;fillColor=#ffe6cc;gradientDirection=east;strokeColor=#d79b00;html=1;" vertex="1" parent="1">
          <mxGeometry x="200" y="640" width="40" height="120" as="geometry"/>
        </mxCell>
        <mxCell id="GcZBcdGSQjWDYk3LejI2-3" value="" style="whiteSpace=wrap;fillColor=#ffe6cc;gradientDirection=east;strokeColor=#d79b00;html=1;" vertex="1" parent="1">
          <mxGeometry x="120" y="640" width="40" height="120" as="geometry"/>
        </mxCell>
        <mxCell id="GcZBcdGSQjWDYk3LejI2-4" value="" style="whiteSpace=wrap;fillColor=#ffe6cc;gradientDirection=east;strokeColor=#d79b00;html=1;" vertex="1" parent="1">
          <mxGeometry x="80" y="640" width="40" height="120" as="geometry"/>
        </mxCell>
        <mxCell id="GcZBcdGSQjWDYk3LejI2-5" value="&lt;font face=&quot;Comic Sans MS&quot;&gt;1&lt;/font&gt;" style="text;spacingTop=-5;align=center;verticalAlign=middle;fontStyle=0;html=1;fontSize=18;points=[]" vertex="1" parent="1">
          <mxGeometry x="49" y="700" width="30" height="40" as="geometry"/>
        </mxCell>
        <mxCell id="GcZBcdGSQjWDYk3LejI2-6" value="2" style="text;spacingTop=-5;align=center;verticalAlign=middle;fontStyle=0;html=1;fontSize=18;points=[];fontFamily=Comic Sans MS;" vertex="1" parent="1">
          <mxGeometry x="49" y="660" width="30" height="40" as="geometry"/>
        </mxCell>
        <mxCell id="GcZBcdGSQjWDYk3LejI2-7" value="4" style="text;spacingTop=-5;align=center;verticalAlign=middle;fontStyle=0;html=1;fontSize=18;points=[];fontFamily=Comic Sans MS;" vertex="1" parent="1">
          <mxGeometry x="49" y="580" width="30" height="40" as="geometry"/>
        </mxCell>
        <mxCell id="GcZBcdGSQjWDYk3LejI2-8" value="5" style="text;spacingTop=-5;align=center;verticalAlign=middle;fontStyle=0;html=1;fontSize=18;points=[];fontFamily=Comic Sans MS;" vertex="1" parent="1">
          <mxGeometry x="49" y="540" width="30" height="40" as="geometry"/>
        </mxCell>
        <mxCell id="GcZBcdGSQjWDYk3LejI2-9" value="0" style="text;spacingTop=-5;align=center;verticalAlign=middle;fontStyle=0;html=1;fontSize=18;points=[];fontFamily=Comic Sans MS;" vertex="1" parent="1">
          <mxGeometry x="54" y="750" width="30" height="40" as="geometry"/>
        </mxCell>
        <mxCell id="GcZBcdGSQjWDYk3LejI2-10" value="1" style="text;spacingTop=-5;align=center;verticalAlign=middle;fontStyle=0;html=1;fontSize=18;points=[];fontFamily=Comic Sans MS;" vertex="1" parent="1">
          <mxGeometry x="104" y="760" width="30" height="40" as="geometry"/>
        </mxCell>
        <mxCell id="GcZBcdGSQjWDYk3LejI2-11" value="2" style="text;spacingTop=-5;align=center;verticalAlign=middle;fontStyle=0;html=1;fontSize=18;points=[];fontFamily=Comic Sans MS;" vertex="1" parent="1">
          <mxGeometry x="145" y="760" width="30" height="40" as="geometry"/>
        </mxCell>
        <mxCell id="GcZBcdGSQjWDYk3LejI2-12" value="3" style="text;spacingTop=-5;align=center;verticalAlign=middle;fontStyle=0;html=1;fontSize=18;points=[];fontFamily=Comic Sans MS;" vertex="1" parent="1">
          <mxGeometry x="185" y="760" width="30" height="40" as="geometry"/>
        </mxCell>
        <mxCell id="GcZBcdGSQjWDYk3LejI2-13" value="4" style="text;spacingTop=-5;align=center;verticalAlign=middle;fontStyle=0;html=1;fontSize=18;points=[];fontFamily=Comic Sans MS;" vertex="1" parent="1">
          <mxGeometry x="224" y="760" width="30" height="40" as="geometry"/>
        </mxCell>
        <mxCell id="GcZBcdGSQjWDYk3LejI2-14" value="5" style="text;spacingTop=-5;align=center;verticalAlign=middle;fontStyle=0;html=1;fontSize=18;points=[];fontFamily=Comic Sans MS;" vertex="1" parent="1">
          <mxGeometry x="264" y="760" width="30" height="40" as="geometry"/>
        </mxCell>
        <mxCell id="GcZBcdGSQjWDYk3LejI2-15" value="" style="rounded=0;whiteSpace=wrap;html=1;fillColor=#d5e8d4;strokeColor=none;opacity=80;" vertex="1" parent="1">
          <mxGeometry x="80" y="640" width="160" height="120" as="geometry"/>
        </mxCell>
        <mxCell id="GcZBcdGSQjWDYk3LejI2-16" value="3" style="text;spacingTop=-5;align=center;verticalAlign=middle;fontStyle=0;html=1;fontSize=18;points=[];fontFamily=Comic Sans MS;" vertex="1" parent="1">
          <mxGeometry x="49" y="620" width="30" height="40" as="geometry"/>
        </mxCell>
        <mxCell id="GcZBcdGSQjWDYk3LejI2-17" value="" style="edgeStyle=none;html=1;fontColor=#000000;strokeWidth=3;strokeColor=#000000;" edge="1" parent="1">
          <mxGeometry width="100" height="100" relative="1" as="geometry">
            <mxPoint x="81" y="760" as="sourcePoint"/>
            <mxPoint x="320" y="760" as="targetPoint"/>
          </mxGeometry>
        </mxCell>
        <mxCell id="GcZBcdGSQjWDYk3LejI2-18" value="" style="edgeStyle=none;html=1;fontColor=#000000;strokeWidth=3;strokeColor=#000000;" edge="1" parent="1">
          <mxGeometry width="100" height="100" relative="1" as="geometry">
            <mxPoint x="81" y="760" as="sourcePoint"/>
            <mxPoint x="80" y="520" as="targetPoint"/>
          </mxGeometry>
        </mxCell>
      </root>
    </mxGraphModel>
  </diagram>
</mxfile>
